<?xml version="1.0" standalone="no"?>
<!DOCTYPE svg PUBLIC "-//W3C//DTD SVG 20010904//EN"
 "http://www.w3.org/TR/2001/REC-SVG-20010904/DTD/svg10.dtd">
<svg version="1.0" xmlns="http://www.w3.org/2000/svg"
 width="1280.000000pt" height="1280.000000pt" viewBox="0 0 1280.000000 1280.000000"
 preserveAspectRatio="xMidYMid meet">
<metadata>
Created by potrace 1.15, written by Peter Selinger 2001-2017
</metadata>
<g transform="translate(0.000000,1280.000000) scale(0.100000,-0.100000)"
fill="#000000" stroke="none">
<path d="M3538 11163 l-568 -568 -380 380 -380 380 -382 -383 -383 -382 380
-380 380 -380 -570 -570 -570 -570 383 -382 382 -383 -382 -382 -383 -383 380
-380 380 -380 952 952 953 953 2287 -2288 2288 -2287 -953 -953 -952 -952 380
-380 380 -380 382 383 383 382 382 -382 383 -383 570 570 570 570 380 -380
380 -380 382 383 383 382 -380 380 -380 380 570 570 570 570 -383 383 -382
382 382 383 383 382 -380 380 -380 380 -952 -952 -953 -953 -2287 2288 -2288
2287 953 953 952 952 -380 380 -380 380 -383 -383 -382 -382 -380 380 c-209
209 -382 380 -385 380 -3 0 -260 -255 -572 -567z"/>
</g>
</svg>
